<?xml version="1.0" standalone="no"?>
<!DOCTYPE svg PUBLIC "-//W3C//DTD SVG 20010904//EN"
 "http://www.w3.org/TR/2001/REC-SVG-20010904/DTD/svg10.dtd">
<svg version="1.0" xmlns="http://www.w3.org/2000/svg"
 width="890.000000pt" height="890.000000pt" viewBox="0 0 890.000000 890.000000"
 preserveAspectRatio="xMidYMid meet">
<metadata>
Created by potrace 1.14, written by Peter Selinger 2001-2017
</metadata>
<g transform="translate(0.000000,890.000000) scale(0.100000,-0.100000)"
fill="#000000" stroke="none">
<path d="M5965 8651 c-93 -23 -223 -89 -276 -140 -24 -22 -46 -41 -50 -41 -4
0 -10 -8 -13 -17 -3 -10 -17 -30 -30 -44 -20 -21 -90 -152 -91 -169 0 -3 -3
-10 -7 -16 -4 -6 -9 -21 -12 -35 -2 -13 -12 -53 -22 -89 -23 -87 -23 -350 0
-470 8 -47 18 -98 21 -115 3 -16 8 -37 11 -45 3 -8 8 -25 10 -37 7 -36 84
-260 100 -291 7 -15 14 -31 14 -35 0 -4 13 -34 29 -67 76 -153 106 -294 98
-467 -3 -76 -10 -129 -17 -138 -7 -8 -10 -15 -7 -15 3 0 -5 -31 -17 -68 -21
-61 -82 -166 -134 -231 -22 -28 -47 -23 -62 11 -6 13 -20 39 -31 58 -24 40
-164 280 -189 325 -9 17 -83 145 -165 285 -81 140 -204 354 -273 475 -69 121
-129 222 -132 225 -3 3 -12 20 -19 38 -8 17 -16 32 -20 32 -3 0 -19 27 -36 60
-16 33 -33 60 -37 60 -4 0 -8 5 -8 10 0 6 -21 48 -47 93 -90 157 -104 155
-220 -43 -47 -80 -86 -151 -87 -158 -1 -8 -7 -17 -12 -20 -5 -4 -59 -92 -118
-197 -60 -104 -118 -206 -129 -225 -11 -19 -27 -48 -36 -63 -9 -16 -21 -36
-26 -45 -6 -9 -45 -78 -88 -152 -43 -74 -82 -142 -87 -150 -43 -70 -110 -191
-110 -199 0 -5 -4 -11 -8 -13 -4 -1 -21 -25 -36 -53 -50 -88 -78 -138 -107
-187 -16 -27 -29 -53 -29 -58 0 -4 -3 -10 -8 -12 -8 -3 -102 -164 -102 -174 0
-12 -42 -64 -51 -64 -12 0 -10 134 2 212 5 29 11 74 14 100 3 26 10 59 15 75
l10 28 -26 -30 c-14 -16 -37 -42 -50 -57 -13 -15 -24 -30 -24 -33 0 -3 -16
-29 -35 -58 -84 -125 -127 -291 -129 -497 l-1 -145 -36 -65 c-20 -36 -57 -100
-83 -142 -25 -43 -43 -78 -40 -78 2 0 -4 -10 -16 -22 -11 -12 -20 -25 -20 -29
0 -4 -37 -69 -81 -145 -120 -204 -183 -318 -180 -323 1 -2 -1 -7 -6 -10 -10
-6 -183 -299 -183 -308 0 -3 -9 -18 -21 -34 -11 -16 -17 -29 -12 -29 4 0 3 -4
-3 -8 -10 -6 -154 -249 -154 -259 0 -3 -9 -18 -21 -34 -11 -16 -17 -29 -12
-29 4 0 3 -4 -3 -8 -14 -9 -134 -215 -134 -230 0 -6 -4 -12 -9 -14 -5 -1 -34
-48 -65 -103 -32 -55 -66 -115 -76 -132 -11 -18 -16 -33 -12 -33 4 0 -1 -5
-11 -11 -9 -5 -17 -14 -17 -20 0 -5 -11 -26 -23 -47 -21 -33 -55 -93 -106
-187 -9 -16 -18 -32 -21 -35 -7 -6 -70 -116 -90 -155 -8 -16 -19 -34 -23 -40
-4 -5 -56 -93 -114 -195 -59 -102 -134 -232 -168 -290 -34 -58 -75 -130 -91
-160 -16 -30 -31 -57 -34 -60 -10 -9 -100 -172 -100 -181 0 -5 -3 -9 -8 -9 -4
0 -18 -21 -32 -47 -14 -27 -49 -88 -77 -136 -29 -48 -53 -92 -53 -97 0 -6 -4
-10 -10 -10 -5 0 -10 -9 -10 -20 0 -11 -3 -20 -8 -20 -4 0 -16 -17 -27 -37
-10 -21 -28 -50 -38 -65 -10 -16 -15 -28 -10 -28 4 0 3 -4 -3 -8 -6 -4 -36
-52 -68 -107 -31 -55 -60 -107 -65 -115 -41 -66 -111 -192 -111 -199 0 -5 -3
-11 -8 -13 -7 -3 -64 -99 -170 -288 -14 -25 -43 -73 -64 -107 -21 -35 -34 -63
-30 -63 4 0 2 -4 -4 -8 -11 -7 -154 -250 -157 -267 -1 -5 -5 -12 -9 -15 -21
-16 -148 -258 -148 -282 l0 -28 4450 0 4450 0 0 45 c0 32 -6 51 -20 65 -11 11
-18 20 -15 20 2 0 -28 55 -67 123 -39 67 -76 131 -82 142 -6 11 -15 23 -21 27
-5 4 -6 8 -1 8 5 0 2 8 -6 18 -8 9 -57 91 -108 182 -51 91 -101 176 -110 190
-9 14 -31 50 -47 80 -52 95 -157 275 -162 280 -3 3 -15 23 -27 45 -23 44 -22
43 -154 270 -120 207 -127 219 -148 258 -17 29 -71 122 -92 157 -55 93 -98
168 -103 180 -4 8 -17 31 -28 50 -12 19 -29 49 -38 65 -9 17 -24 41 -33 55
-18 27 -68 116 -95 168 -9 17 -20 32 -25 32 -4 0 -8 5 -8 12 0 6 -44 89 -99
182 -54 94 -104 182 -111 196 -7 14 -16 27 -19 30 -3 3 -11 14 -17 25 -56 103
-80 144 -95 167 -11 14 -19 28 -19 31 0 2 -46 82 -101 178 -56 96 -124 212
-151 259 -27 47 -53 92 -58 100 -53 89 -231 401 -240 421 -11 24 -9 32 28 81
22 30 53 68 69 84 15 16 40 43 55 59 60 66 179 160 250 197 32 16 38 23 25 26
-10 2 -26 0 -35 -4 -9 -4 -28 -9 -42 -11 -14 -2 -32 -6 -40 -9 -8 -3 -17 -5
-20 -6 -3 0 -21 -6 -40 -13 -47 -17 -70 -25 -73 -23 -6 3 -185 -98 -234 -133
-31 -21 -59 -36 -63 -34 -7 4 -75 116 -115 190 -7 11 -45 79 -87 150 -41 72
-85 147 -96 168 l-21 39 37 31 c20 18 41 38 45 45 5 7 12 10 18 7 5 -4 9 -2 9
3 0 5 26 36 58 69 31 33 73 78 92 102 19 23 40 47 45 54 6 7 33 46 60 87 28
41 52 77 55 80 8 8 30 44 36 60 25 61 53 108 60 102 5 -4 6 -3 2 2 -4 5 -1 21
6 35 89 168 174 474 202 726 7 63 6 381 -1 415 -3 14 -8 48 -11 75 -4 28 -8
53 -10 56 -2 4 -6 23 -10 43 -13 86 -73 259 -122 351 -30 57 -102 166 -117
177 -5 4 -7 8 -3 8 4 0 -3 10 -15 23 -12 13 -25 22 -29 20 -5 -2 -8 2 -8 9 0
7 -12 22 -25 33 -14 11 -36 29 -48 40 -51 48 -137 96 -108 62 6 -8 8 -16 5
-20 -3 -3 1 -16 9 -29 13 -20 28 -71 29 -95 0 -5 4 -13 8 -19 5 -5 21 -68 36
-140 26 -119 28 -147 28 -369 0 -154 -4 -258 -11 -290 -7 -27 -15 -67 -18 -88
-5 -40 -38 -169 -50 -199 -10 -26 -35 -22 -36 5 0 12 -2 31 -4 42 -2 11 -7 43
-11 70 -4 28 -8 52 -9 55 -1 3 -5 19 -9 35 -20 79 -72 227 -102 288 -18 37
-29 67 -26 67 4 0 2 4 -4 8 -6 4 -19 23 -29 42 -19 39 -103 168 -122 188 -7 7
-13 18 -13 23 0 6 -4 7 -10 4 -5 -3 -10 1 -10 9 0 9 -4 16 -8 16 -4 0 -16 13
-25 30 -10 16 -23 35 -30 42 -35 37 -123 196 -154 282 -38 102 -48 174 -48
331 0 131 9 215 27 248 6 12 10 23 9 25 -6 6 51 142 64 152 8 7 13 16 10 20
-3 4 2 13 10 20 8 7 15 16 15 21 0 13 28 47 92 112 32 31 54 57 50 56 -4 0
-38 -8 -77 -18z"/>
</g>
</svg>
